<?xml version="1.0" encoding="UTF-8" standalone="no"?>
<svg width="543px" height="302px" viewBox="0 0 543 302" version="1.1" xmlns="http://www.w3.org/2000/svg" xmlns:xlink="http://www.w3.org/1999/xlink" xmlns:sketch="http://www.bohemiancoding.com/sketch/ns">
    <!-- Generator: Sketch 3.1.1 (8761) - http://www.bohemiancoding.com/sketch -->
    <title>worldmap-01svg</title>
    <desc>Created with Sketch.</desc>
    <defs>
        <rect id="path-1" x="0" y="0" width="542" height="300.8495"></rect>
        <linearGradient x1="104.037956%" y1="110.180214%" x2="17.2803147%" y2="13.4728871%" id="linearGradient-3">
            <stop stop-color="#08519A" offset="0%"></stop>
            <stop stop-color="#0B549D" offset="27.99%"></stop>
            <stop stop-color="#135BA7" offset="50.99%"></stop>
            <stop stop-color="#2269B9" offset="72.22%"></stop>
            <stop stop-color="#367BD1" offset="92.28%"></stop>
            <stop stop-color="#4084DC" offset="100%"></stop>
        </linearGradient>
    </defs>
    <g id="Page-1" stroke="none" stroke-width="1" fill="none" fill-rule="evenodd" sketch:type="MSPage">
        <g id="worldmap-01" sketch:type="MSLayerGroup" transform="translate(0.000000, 1.000000)">
            <g id="Clipped">
                <mask id="mask-2" sketch:name="SVGID_1_" fill="white">
                    <use xlink:href="#path-1"></use>
                </mask>
                <g id="SVGID_1_"></g>
                <rect id="Rectangle-path" fill="url(#linearGradient-3)" sketch:type="MSShapeGroup" mask="url(#mask-2)" x="0" y="0" width="595.2244" height="303.408"></rect>
            </g>
            <g id="Group" transform="translate(139.000000, 0.000000)" sketch:type="MSShapeGroup">
                <path d="M230.7,36.7 L230.5,31.9 L223.1,25.9 L226,21 L217.9,17.7 L217.2,10.1 L210.3,9.6 L207.7,17 L200.8,17.2 L195.1,14.6 L194.4,14.9 L204,20.9 L205.7,26.1 L210,34.9 C210.2,34.9 210.3,35.1 210.3,35.1 C212.4,34.9 213.9,36.1 215.3,37.5 C216.7,38.9 216.5,40.9 215,42 C214.7,42.3 214.1,42.7 213.8,43.2 C212.6,45.1 211.9,47.3 210.4,48.9 C208.8,50.6 207.5,52.3 206.3,54.4 C206.1,54.7 205.3,54.9 204.7,55.3 C204.5,55.1 204.5,55.1 204.4,55.1 C204.1,56 203.7,56.8 203.4,57.5 C203.1,58.2 203.2,58.7 203.6,59.4 C204.3,61 204.8,62.7 205.3,64.4 C205.5,64.6 205.5,64.9 205.6,65.1 C207,66 206.8,67.2 206.6,68.5 C206.4,69.8 206.3,70.9 206.3,72.3 C206.1,74.2 206.5,74.4 208.2,74.9 C208.9,75.1 209.4,75.1 210.1,75.1 C211.3,75.3 212.3,76.1 212.5,77.3 C212.7,78.3 212.8,79.2 214.2,78.9 C214.5,78.9 214.7,79.1 215.1,79.1 C215.8,79.1 216.5,79.3 217.2,79.1 C218.4,78.8 219.4,77.7 220.8,77.9 C221.3,77.9 222.2,77.7 222.5,77.4 C223.5,76.4 224.7,76 225.9,75.5 C226.6,75.3 227.5,75.3 227.8,74.8 C229,73.2 230.6,72.9 232.1,72.7 C233.1,72.5 234,72.4 234.9,71.8 L235.6,71.6 L245.2,52.5 L236.4,47 L236.4,43.2 L230.7,36.7 L230.7,36.7 Z" id="Shape" fill="#89AFDC"></path>
                <path d="M279.4,125.3 L277.2,123.5 L274.1,123.9 L273.1,121 L271.7,120.8 L265.8,115.1 L264.3,110.1 L260.7,107.9 L256.5,109.2 L254.3,107 L252.6,108 L251,107 L249.1,107 L246,110.5 L242.4,111.8 L242.4,113.7 L244.8,114.8 L239.8,120.4 L241.2,126 L237.9,125.3 L235.2,129.2 L230,129.4 L234.1,139 L231.2,141.3 L230.3,144.2 L233.1,145.4 L232.9,148.7 L235.3,149.7 L236.2,147 L242.4,145.3 L251,144.9 L256.5,146.6 L263.4,144.7 L270.3,144.2 L273.9,145.6 L271.9,140.1 L278.1,137.2 L273.6,131.8 L273.1,128.4 L277.5,128.2 L279.4,125.3 Z" id="Shape" fill="#89AFDC"></path>
                <path d="M227.7,81.2 C225.5,81.9 223.4,82.9 221.3,84 C219.7,84.7 219.7,84.9 220.3,86.4 C220.6,87.1 220.8,88 221.2,88.6 C221.5,89.8 223.3,90.8 224.6,90.7 C225.8,90.5 226.5,91.2 226.3,92.4 C226.1,92.9 226.1,93.4 226,94 L230.1,92.4 L237.5,95.8 L240.4,94.1 L241.1,94.4 L241.8,91.1 L238.5,85.9 L240.2,81.2 L239.9,79.3 C237.3,79.6 234.9,79.8 232.5,80.3 C230.9,80.7 229.1,80.8 227.7,81.2 L227.7,81.2 Z" id="Shape" fill="#89AFDC"></path>
                <path d="M120.8,167.8 L118.9,172.5 L119.7,172.8 L122,172.8 L123.5,171.1 L120.9,167.6 L120.8,167.8 Z" id="Shape" fill="#89AFDC"></path>
                <path d="M134.4,178.5 L129.2,192.1 L133.3,191.8 L133.6,189.4 L137.4,189.4 L137.2,191.8 L142.9,192.5 L142.9,192.7 L146.3,194.8 L150.4,192.7 L151.8,194.3 L153.9,194.5 L156,192.8 L163.8,191.6 L165.4,193.7 L166.6,193 L163.8,187.5 L170.3,183.4 L170.5,181.5 L161.4,172.9 L162.1,171 L159.7,167.6 L175.7,159.5 L177.6,160.5 L178.3,157.2 L176.4,153.8 L175.7,146.4 L172.8,143.1 L174.9,139.8 L173.5,134.3 L173.2,134.5 C172.3,133.5 171.5,132.6 170.4,131.7 C169.5,131.9 169.5,131.9 168.3,130.7 C166.4,128.8 165.5,128.8 163.8,130.2 C163.6,130.4 163.5,130.9 163.1,130.9 C162.4,131.2 161.7,131.9 161,131.9 C160,131.9 159.1,132.2 158.4,133.1 C158.1,133.4 157.2,133.8 156.7,133.8 C155.8,133.8 155,133.6 154.3,133.5 C153.4,131.9 156.4,131.4 155,129.9 C154,130.4 153.1,130.6 152.2,129.7 C152,129.5 151.5,129.5 151.2,129.5 C150.5,129.3 149.8,129.3 149.1,129.2 C148.9,128.5 148.8,128 148.8,127.6 C148.8,126.2 147.9,125.7 146.7,125.9 C146.4,125.9 146,126.1 145.8,125.7 C144.9,124.1 143.4,125.4 142.4,124.5 C142.2,125.9 142.2,127.3 142.1,127.9 C142.3,128.9 142.4,129.8 142.8,130.5 C143.1,131.2 143.1,132.2 144.4,132.6 C146.1,133.3 146.6,134.5 146.3,136.2 C145.3,135.7 144.4,135.2 143.5,134.6 C141.6,133.4 141.4,133.6 140.9,135.8 C140.7,136.1 140.4,136.7 140,137 C139.7,136.7 139.3,136.5 139,136 C138.8,136.3 138.7,137 138.5,137.6 C136.6,137.6 137.3,135.5 136.3,134.7 C136.1,134.7 136,134.5 135.6,134.7 C134.6,135 133.4,135.4 132.3,135.9 L132.1,136.1 L131.9,141.3 L129,145.4 L131.8,146.4 L127.8,151.9 L123.8,152.4 L124.5,155.5 L122.6,161.7 L124,165.5 L121.6,166.9 L124.7,171 L123.1,172.7 L124.7,175.5 L134.4,178.5 L134.4,178.5 Z" id="Shape" fill="#FFFFFF"></path>
                <path d="M211.7,112 C211.9,114.1 212.2,116.1 212.6,118.2 L219.7,120.1 L223.1,119.9 L223.4,125.4 L225.5,125.2 L229.3,127.8 L229.5,128.1 L234.5,127.9 L237.4,123.9 L239.5,124.2 L238.5,119.7 L243,114.7 L241.3,114 L241.1,111.4 L232,106.9 L228.7,108.6 L216.6,108.4 L211.6,111.2 C211.7,111.8 211.7,111.8 211.7,112 L211.7,112 Z" id="Shape" fill="#89AFDC"></path>
                <path d="M221.9,172.6 L216.4,173.2 L212.9,175.7 L209,172.6 L206.9,175.1 L205.4,173.3 L202.3,174.5 L200.5,178.7 L195,180.2 L193.5,181.6 L195.2,187.1 L195.2,187.3 L200.2,189.9 L205.4,189.2 L206.2,186.8 L211,184.2 L215,184 L217.6,180.4 L222.2,180 L227.6,180 L228.6,175.1 L221.9,172.6 Z" id="Shape" fill="#89AFDC"></path>
                <path d="M229,144.9 L230.4,140.8 L232.8,138.9 L228.7,128.7 L225.4,126.5 L205.4,127.5 C204.4,128.7 202.6,128.5 201.3,128.5 C200.3,128.5 199.4,128.3 198.9,127.1 C198.6,126.2 197.9,125.5 197.3,124.7 C195.7,125 194.4,125.4 193,125.9 C190.4,126.6 188,127.8 186.1,129.3 C185.1,130 184,130.5 182.8,130.9 C181.2,131.6 179.5,132.1 177.8,133 C177.3,133.2 176.8,133.5 176.2,133.7 L174.3,134.2 L175.9,140.1 L174,143 L176.8,145.9 L177.8,153.7 L179.9,157.1 L179.2,160 L181.1,159.1 L182.7,161.7 L189.4,162.7 L188.7,165.6 L191.1,167 L193,163.7 L195.8,165.8 L198.2,164.6 L199.4,168 L202.2,168.3 L207.2,173.5 L209.1,171.3 L213.4,174.6 L216.3,172.2 L222.5,171.7 L230.9,174.8 L231.9,173.9 L229.7,170.6 L234.7,161.1 L237.1,159.7 L237.1,158 L231.9,151.1 L232.2,146.1 L229,144.9 L229,144.9 Z" id="Shape" fill="#89AFDC"></path>
                <path d="M222.2,181.3 L218.3,181.4 L215.7,185.2 L211.2,185.2 L206.9,187.5 L206.2,190.2 L200,191.1 L195,188.5 L194.8,190.7 L191.7,191.4 L191.6,196.8 L189.9,198.3 L191.4,201.9 L198.5,207.6 L205.7,208.3 L213.5,203.5 L222.9,201.9 L229.6,187.3 L232.6,185.7 L232.9,184.2 L227.6,181.3 L222.2,181.3 Z" id="Shape" fill="#89AFDC"></path>
                <path d="M171.9,180.7 L174.9,183 L177.1,182.6 L180.9,178.5 L186.4,180.4 L193,180.7 L194.5,179.4 L199.7,177.8 L201.4,173.7 L204.5,172.5 L201.4,169.2 L198.3,168.9 L197.4,165.9 L195.5,167 L193.1,165.1 L191.6,168.2 L187.3,165.9 L188,163.3 L181.9,162.7 L180.7,160.4 L178.8,161.3 L178.7,162.1 L176.1,160.8 L161.8,167.8 L163.7,170.9 L163.1,172.5 L171.9,180.7 Z" id="Shape" fill="#F16531"></path>
                <path d="M273.7,201.4 L274.3,201.6 L276.8,195.6 L275,191.2 L280.6,192.3 L282.2,190.9 L281.8,188.5 L278.9,187.3 L278.1,184.9 L275.1,183.2 L273.6,178.3 L263.2,175.6 L258.6,177.8 L261,179.4 L272,190.2 L271.7,197.4 L273.7,201.4 Z" id="Shape" fill="#89AFDC"></path>
                <path d="M254.5,182.3 L250.2,183.5 L247.4,186.3 L244.6,184.1 L233.7,184.6 L233.4,186.3 L230.1,188 L223.6,202.8 L218.3,203.8 L222.1,207.9 L223.1,210.8 L227.8,212.5 L227.5,216.5 L232.3,217.7 L234.9,215.8 L237.5,220.8 L239.6,221.1 L239.4,223.2 L243.4,222.7 L249.8,222.9 L251.9,222 L259.3,222.2 L265.3,215.8 L271.3,216.1 L278.2,218 L278.2,217.8 C278.2,215.7 278,213.8 278.2,211.9 C278.4,210.5 278.4,209 279.6,207.8 C280.5,207.1 281.5,206.4 282.4,205.7 C282.7,205.4 283.1,204.7 283.1,204.1 C283.1,203.2 282.9,202.2 282.9,201.3 L279.3,202 L277.6,203.9 L272.9,202 L270.5,197.3 L270.8,190.4 L260,180.2 L257.2,178.6 L254.5,182.3 L254.5,182.3 Z" id="Shape" fill="#89AFDC"></path>
                <path d="M158.3,92 C158.1,93.4 158.1,94.6 159,95.8 C160,97.4 160.9,99.1 161.6,101 C162.6,103.6 163.3,106.2 165.9,107.5 C166.6,107.8 167.1,108.9 166.9,109.9 C166.7,110.9 166.4,112 166.2,113.2 C166,113.7 165.9,114.6 166,114.8 C167.2,115.8 167.2,117 167,118.4 C166.8,119.3 167.5,119.6 168.4,119.6 C169.4,119.4 170.3,119.4 171.3,119.3 C172.2,119.1 173,118.8 173.9,118.4 C173.7,118.2 173.7,118.2 173.6,118.1 C173.6,117.2 173.3,116.2 173.8,115.7 C175.4,114 177.1,112.4 179.7,112.9 L179.9,112.9 C182.7,112.9 183.3,112.2 184,109.6 C184.2,109.3 184.2,108.9 184.3,108.6 C185.2,106.5 186,104.6 185.9,102.2 C185.7,100.3 185.7,98.2 185.9,96.3 C185.9,95.6 186.1,94.7 186.4,94.1 C187.4,92.7 188.3,91.3 189.5,90.3 C190.7,89.1 191.9,87.7 194,87.4 C195,87.2 195.9,85.8 196.8,85 C197.5,84.3 197.3,83.8 197.1,82.9 C196.4,80.8 195.2,79.3 193.7,77.9 C191.5,76 189.4,74.3 187.2,72.4 C187,72.2 186.9,72.1 186.9,71.7 C186.9,69.8 187.1,68.1 187.1,66.2 C187.3,65 187.6,63.4 187.4,62.2 C187.2,61.3 187.6,60.8 188.1,60.6 C189,60.4 189.1,59.7 189.3,59.2 C190.3,57.3 191,55.2 192.7,53.9 C194.3,52.7 196.1,51.7 197.7,50.1 C199.3,48.5 200.6,46.7 202,44.9 C201.7,44.6 201.3,44.2 201,43.9 C200,43.2 199.8,42.3 200.7,41.1 C200.9,40.9 200.9,40.2 200.7,40.1 C199.7,39.1 200.5,38.5 201,38 C201.3,37.7 201.9,37.1 202.2,36.8 C202.5,36.5 203.2,36.5 203.2,36.1 C204.2,34.2 205.1,34 207,34.4 C207.3,34.6 207.7,34.6 207.9,34.6 C208.2,34.4 208.6,34.4 209.1,34.3 L209.1,34.3 L209.3,34.3 L205.3,26 L203.7,21.2 L193.7,15 L192.7,15.3 L192.9,18.9 L187,18.7 L185.6,22.3 L182.2,22.1 L176.9,34.5 L174.8,34.7 L172.8,49 L168.1,49.7 L164.3,54.9 L165.7,67.1 L169,68.7 L167.8,72.7 L164.2,73.9 L166.4,77.2 L164.8,81.5 L162.4,82.9 L161.7,90.8 L158.4,89.8 C158.3,90.6 158.5,91.3 158.3,92 L158.3,92 Z" id="Shape" fill="#89AFDC"></path>
                <path d="M368.7,208 L373.4,209 L379.9,204.2 L381.1,201.3 L386.8,201.5 L387,200.3 L383.9,198.4 L384.1,196.2 L381,195.7 L378.9,193.6 L374.2,194.3 L369.9,198.1 L361.8,195.9 L357,197.8 L349.9,197.6 L348.9,198.8 L349.1,199 C349.1,199 349.1,199.2 349.3,199.2 C350.5,199.7 351.7,200.6 353.3,200.2 C354,200 354.9,200 355.4,200.4 C357,201.1 358.7,202 359.7,203.2 C360.9,204.4 362.5,205.6 362.6,207.7 C362.8,208.7 362.8,209.8 362.9,211 L362.7,211.3 L368.7,208 L368.7,208 Z" id="Shape" fill="#89AFDC"></path>
                <path d="M224.1,9.2 L223.8,9 L218.8,13.5 L219.1,16.8 L227.7,20.4 L224.8,25.6 L232,31.5 L232.2,36.5 L237.9,42.9 L237.9,46.3 L247.2,52 L237.6,70.9 L237.9,70.7 C239.5,70.4 239.5,70.4 240.7,71.9 C241.2,71.2 242.8,71.6 242.8,72.2 C243,73.2 243.5,73.2 244.4,73.2 C245.3,73.4 246.1,73.4 246.8,73.5 C247.1,73.7 247.5,74 247.7,74.5 C247.7,74.7 247.4,75.2 246.8,75.4 C246.2,75.6 245.8,75.7 245.4,76.1 C244.5,77.1 243.3,77.3 242.1,77.7 C241.6,77.9 241.2,77.9 240.9,78.2 L240.9,78.2 L240.9,78.4 C240.7,78.6 240.7,78.6 240.7,78.7 L240.7,78.7 L241.2,82 L239.6,86.3 L242.9,91.5 L242.2,95.6 L245,97.3 L249.5,106.4 L251.7,106.4 L252.9,107.1 L254.8,106.1 L257,108.5 L261.1,107.1 L265.4,109.9 L267.1,115.1 L272.6,120.3 L274.3,120.6 L275.3,123.4 L278.1,123.2 L281.4,125.6 L278.6,129.9 L274.8,130.1 L275.1,132 L279.4,137.3 L282.3,134.9 L289.5,133.2 L293.6,136.8 L294.6,141.8 L300.1,141.3 L305.1,147.3 L308.2,145.7 L310.8,146.6 L314.4,144.2 L317.3,146.6 L326.9,147.5 L330,146.5 L332.1,148.6 L330.9,152 L334.9,162 L331.5,163.7 L328.7,168.4 L329.6,170 L329.9,169.8 C330.6,169.5 331.3,168.8 332,168.6 C332.7,168.4 333.7,168.3 334.1,168.6 C334.4,168.9 334.8,170 334.6,170.7 C334.4,171.2 333.7,171.7 333.4,172.3 C333.1,173 332.2,173.5 332.2,174.2 C331.9,178 331.7,181.6 331.3,185.4 C331.3,185.7 331.1,186.4 330.8,186.8 C329.6,188.4 328,190.1 327,191.5 C328.6,191.8 330.1,192.4 331.7,192.9 C332.7,193.2 333.8,193.8 334.8,194.1 C337.2,194.8 340,194.1 342.2,195.3 C344.1,196.3 346,197.2 347.7,198.2 C347.9,198.4 348,198.5 348.4,198.5 L348.4,198.5 L348.7,198.7 L350.1,196.8 L357.5,197 L362.5,194.9 L370.3,197 L374.4,193.4 L379.9,192.5 L382.1,194.9 L385.4,195.6 L392.6,198.2 L394.8,191.7 L394.6,191.5 L394.4,191.5 C392.5,190.3 391,189.1 389.2,187.9 C387.1,186.3 385.9,184.1 384.7,181.9 C384.2,180.9 383.8,179.5 383.5,178.5 C383.2,177.5 382.8,176.4 381.3,176.4 C379.4,176.2 378.9,175.4 378.9,173.5 C378.7,171.9 378.7,170.4 378.4,168.8 C378.1,166.9 377.9,165 379.1,163.5 C379.8,162.6 380.3,161.8 380.1,160.6 C380.1,160.1 380.6,159.6 380.8,158.9 C381,158.7 381.1,158.6 381.1,158.2 L381.1,158.2 L381.4,155.8 L377.3,153.9 L378.3,151 L371.8,146.5 L368.4,148.2 L361.3,144.4 L361.6,139.1 L357.8,136.2 L357.6,126.2 L363.5,129.5 L364.2,128.1 L361.3,123.4 L363.7,115.6 L363.4,111.6 L368.4,107.3 L378.6,110.1 L382.6,109.1 L387.9,98.8 L392.6,100.2 L397.3,96.1 L395.4,92.7 L388.5,91.8 L389,87.1 L384.7,84.3 L386.3,81.4 L380.1,76.6 L387.3,59.7 L385.2,53 L388.6,50.9 L394.5,55.2 L397.1,52.8 L400,54 L400.5,52.6 L398.4,46.9 L403.4,47.8 L403.4,-0.1 L288,-0.1 C287.8,0.6 287.1,1.3 287.8,2 C288.5,2.7 288.1,3.2 287.6,3.6 C287.3,3.9 286.7,4.8 286,3.8 C286,3.6 285.3,4 285,4.1 C284.5,4.8 284,4.8 283.4,4.1 C283.1,3.8 282.7,3.1 282.7,2.9 C281.8,3.6 280.8,4.1 280.1,5 C279.4,5.7 278.4,5.9 278.2,7.1 C278,8.1 277.9,9.2 277.7,10.2 C277.7,10.4 277.5,10.5 277.4,10.7 C276.4,11 276.7,11.7 277.1,12.3 C277.3,12.6 277.6,13.2 277.8,13.5 C278.5,14.5 278,16.6 276.9,16.9 C275.7,17.2 274.3,17.6 273.1,16.6 C272.6,16.3 271.9,16.1 271.4,15.9 C270.4,15.6 269.3,15.2 268.5,14.9 C268.3,14.7 268.2,14.4 268.2,14 C268,12.6 268.4,11.6 269.4,10.7 C269.7,10.5 269.7,9.5 269.7,9.5 C268.7,9.2 267.8,7.9 266.4,8.3 C265.7,8.5 264.8,8.5 264.2,8.5 C263.2,8.7 262.1,8.7 260.9,8.8 C262.8,9.7 264.5,10.9 265.2,12.6 C265.9,14.7 267.4,15.5 269.2,16 C270.8,16.5 272,17.2 272.5,18.9 C272.8,19.8 273.4,20.5 273.7,21.3 C273.9,21.6 273.5,22.3 273.4,22.9 C272.4,22.4 271,23.4 270,22.2 C269.3,21.5 266.7,21.7 266.4,22.4 C265.9,23.6 265.4,24.8 265.4,26 C265.6,27 264.9,27.6 264.4,27.9 C263.5,28.2 263.5,28.9 263.7,29.5 C265.3,30.2 266.6,31.1 268,31.9 C268.2,34.7 267.7,35.2 264.7,35.2 C264,35.2 263.1,35 262.6,35.4 C261.6,35.9 260.2,35.7 259.7,35.1 C258.7,33.7 258.3,33.5 256.8,34.6 C256.3,34.9 256.3,35.3 256.6,35.8 C257.8,37.4 259.5,37.7 261.3,37.5 C262.7,37.3 263.2,38.2 263.7,39.1 C264,40.1 263.5,41.2 262.5,41.3 C261.6,41.5 260.8,41.5 260.1,41.6 C256.8,41.9 254.2,40.2 251.1,39.7 C250.9,39.7 250.8,39.4 250.4,39 C249.2,37.6 248,36.2 246.6,34.9 C246.4,34.6 246.1,34.2 245.9,33.9 C245.7,33.2 245.6,32.3 245.4,31.5 C244.9,29.6 243.5,28.6 242,28.7 C239.9,28.9 238.4,28.4 236.8,27.1 C235.1,25.9 234.7,25.9 235.2,23.8 C236.2,24 237.1,23.6 238,24.5 C239,25.4 240.8,25.2 242.3,25.5 L242.5,25.5 C243.9,25.2 245.3,25.2 246.6,26 C246.8,26.2 247.3,26.2 247.6,26.2 C248.8,26 250.4,25.7 251.4,26 C253.8,26.9 256.1,27.2 258.3,25.3 C258.5,25.1 258.5,25.1 258.6,25.1 C260.3,24.6 261,23.4 261.2,21.8 C261.4,20.1 260.9,18.9 259.3,17.7 C258.8,17.4 258.3,16.8 257.7,16.5 C257.4,16.2 256.7,15.5 256.5,15.6 C255.3,16.3 254.6,15.6 253.7,15.3 C253.2,15 252.5,15 251.8,14.8 C249.7,14.3 247.7,13.6 245.8,13.1 C244.1,12.8 242.4,12.2 240.6,11.7 C239.6,11.4 238.5,10.8 237.5,10.5 C236.1,11.2 236.1,11.2 234.6,10.7 C233.6,10.4 232.2,10.9 231.5,11.7 C231,12.4 229.6,12.4 228.7,11.9 C228,11.2 227.3,10.9 226.6,10.2 C226.3,9.9 226.3,9.5 225.9,9.2 C226.1,9 226.1,9 226.1,8.9 C225.2,8.7 224.5,8.6 224,9.6 C225,8.6 224.5,9.2 224.1,9.2 L224.1,9.2 L224.1,9.2 Z" id="Shape" fill="#89AFDC"></path>
                <path d="M355.1,297.9 L376.6,268.4 L373.2,254.1 L377,245.7 L376,245.4 L368.6,250.7 L360.2,259 L355.5,259.2 L350.5,263.9 L346.2,264.9 L346.5,269 L345.1,270.6 L345.8,273 L342.9,274 C343.2,275.2 343.6,276.4 343.8,277.6 C344,279.2 344,280.9 344.1,282.6 C344.3,283.3 344.3,283.6 344.4,283.8 L348.9,282.4 L349.8,287.4 L345,297.9 L345.2,299.5 L351.1,300.9 L355.1,297.9 L355.1,297.9 Z" id="Shape" fill="#89AFDC"></path>
                <path d="M152.1,200 L161.4,197.3 L163.1,201.2 L171.9,202.6 L177.1,204 L180.9,201.8 L186.7,200.5 L188.8,197.8 L190.5,196.1 L190.7,190.6 L193.8,190 L194,187.1 L192.4,181.8 L186.2,181.6 L181.1,179.9 L177.6,183.5 L174.5,184 L172.1,182.1 L171.9,183.8 L165.7,188 L168.5,193.7 L165.4,195 L163.7,192.8 L156.9,193.8 L154.7,195.7 L151.6,195.6 L150.6,194.2 L146.6,196.1 L142.8,193.8 L142.3,196.9 L145.7,199.2 L148.3,199.2 L148.7,199.2 L149.4,199.2 L149.4,199.3 L152.1,200 Z" id="Shape" fill="#89AFDC"></path>
                <path d="M214,229.3 L212.8,226.7 L214.5,224.6 L210.5,222.5 L212.1,218.2 L211.1,217.2 L200.2,216.2 L193.8,215.3 L189.7,217.7 L187.1,216.1 L186.4,217.8 L190.2,225 L198.3,232.1 L199.5,235.7 L199.8,235.9 C200,236.2 200.1,236.4 200.5,236.6 C201.7,237.3 202.7,238 203.9,238.5 C204.2,238.7 204.8,239 205.1,239.4 L205.3,239.6 L206,239.8 L207.6,239.3 L207.1,237.1 L209.2,232.6 L214,229.3 L214,229.3 Z" id="Shape" fill="#89AFDC"></path>
                <path d="M315.3,181.8 C316.2,180.6 316.9,179 318.6,178.4 C320.8,177.4 322.7,175.8 324.1,173.7 C324.8,172.7 326,171.8 327,171.3 L327,171.3 L327.2,171.1 C327.7,170.8 328.2,170.6 328.4,170.2 L328.6,170 L327.4,167.9 L330.7,162.4 L333.6,161 L329.8,151.5 L331,148.2 L329.8,147 L327,148 L316.7,147 L314.3,144.9 L310.9,147 L308.3,146.1 L304.9,148 L299.7,141.6 L294,142.1 L292.8,136.6 L289.4,133.7 L282.9,135.3 L280.1,137.7 L280.3,137.9 L273.8,140.8 L276.6,147.7 L270.9,145.6 L264.5,146.1 L257.3,148.2 L251.6,146.5 L243.2,146.7 L237.9,148.4 L236.9,151.7 L233.8,150.5 L233.6,151.5 L238.8,158.4 L238.6,161.3 L236,162.9 L231.5,171.5 L233.9,174.9 L231.5,176.8 L230.5,176.5 L229.5,181.5 L234.7,184.4 L245.7,183.7 L248.1,185.4 L250.5,183.3 L254.8,182.1 L258.2,178 L258.4,178.2 L263.9,175.3 L275.3,178.4 L276.9,183.4 L279.8,185.1 L280.7,187.5 L283.6,188.7 L284.3,192.1 L282.1,194 L277.8,193.3 L279,196.2 L276.2,202.6 L278.4,203.5 L280,201.9 L283.6,201.2 L282.9,201.2 L282.7,201 C282.5,200.8 282.5,200.7 282.4,200.5 C281.4,199.5 281.7,198.4 282.9,197.7 C284.3,197.2 285.3,196.1 286.2,194.9 C287.4,192.8 288.3,190.6 289.3,188.4 C289.6,187.4 290.3,186.5 291.2,185.6 C291.4,185.4 291.9,185.8 292.2,185.8 C292.5,186 292.7,186.1 293.1,186.3 C293.3,186.3 293.4,186 293.6,185.6 C293.9,185.3 294.1,184.6 294.5,184.6 C295.9,184.3 296.6,184.9 296.9,186.3 C297.1,187.3 296.7,188.4 296.7,189.6 C297.7,190.1 299.1,190.3 300.5,189.8 C301.5,189.5 302.6,188.9 303.4,188.6 C304.4,188.3 305.5,189.6 306.5,188.6 C306.7,188.6 306.8,188.8 307,188.9 C308,189.8 307.9,191.1 306.7,191.7 C304.8,192.6 303.8,194.1 303.1,196 C303.4,196 304,196.2 304.1,196.2 C305.3,195.2 306.2,196.4 307,196.9 C307.3,197.1 307.7,197.8 308.2,198.1 C309.6,199.1 309.9,200.5 309.8,202.1 C309.6,202.4 310.1,203.3 310.1,203.3 C311.1,203.1 312.3,203.1 313.4,202.8 C313.7,202.6 313.7,201.8 313.9,201.2 C314.1,200.9 314.2,200.3 314.6,200 C315.3,199.3 316.2,198.6 316.8,197.9 C317.5,197.4 318.5,196.9 318.7,196.2 C319,194.3 320.4,194.5 321.6,194.1 C322.6,193.8 324,194.3 324.4,192.9 C323,192 321.6,192.2 320.3,192.7 C319.1,193.2 317.4,192.9 316.5,191.7 C315.6,190.7 314.9,189.6 314.4,188.4 C313.7,187.2 313.4,185.8 314.6,184.6 C314.6,183.2 314.7,182.3 315.3,181.8 L315.3,181.8 Z" id="Shape" fill="#89AFDC"></path>
                <path d="M402.1,51.9 L401.1,54.7 L397.8,53.3 L395,55.8 L389,51.3 L386.9,52.7 L388.8,59.1 L381.9,75.5 L388.1,80.3 L386.5,83.2 L390.6,85.8 L390.1,89.9 L396.5,90.6 L398.9,95.3 L393.2,100.3 L388.9,99.1 L383.7,108.9 L379,110.1 L369.2,107.3 L365.1,110.7 L365.4,114.1 L363.3,121.9 L366.2,126.7 L364.6,129.6 L359.4,126.8 L359.6,134.6 L362.9,137.7 L362.6,142.9 L368.6,146.2 L372,144.5 L379.8,149.8 L378.8,152.6 L381.7,153.8 L381.9,153.1 L381.9,153 C382.6,151.1 383.1,149.2 384,147.3 C384.3,146.1 384.9,144.9 386.4,144.4 C387.6,144.1 388.6,143.5 389.7,142.8 C391.9,141.6 392.6,141.2 393.8,144.2 C394.1,145.2 394.7,146.4 395.4,147.1 C397.5,149 397,151.2 396.6,153.5 C396.6,153.7 396.3,153.8 395.9,154.2 C394.9,155.1 394,155.8 393,156.6 C392.1,157.5 392.3,159.5 393.3,160.4 C394.3,161.3 394.3,162.3 393.3,163.3 C392.8,163.8 392.3,164.5 391.7,165.2 C391.9,165.4 392,165.5 392,165.5 C395.3,165.5 397,168.1 399.2,169.8 C400.6,171 401.6,172.6 403.5,173.2 L403.5,47.8 L400.2,47.1 L402.1,51.9 L402.1,51.9 Z" id="Shape" fill="#89AFDC"></path>
                <path d="M228.3,256.5 L225.4,253.9 L223,249.8 L223.5,243.6 L218.8,239.8 L217.1,239.6 L215.2,242 L215,246.3 C215.2,246.5 215.3,246.8 215.3,247 C216,248 216.9,249.4 215.6,250.8 C215.1,251.5 214.9,252 215.1,253 C215.3,254.6 215.6,256.3 214.9,258 C214.7,258.7 215.4,259.9 216.1,260.6 C217.1,261.6 218.3,262.2 219.5,263 C219.7,263.2 219.7,263.2 219.7,263.3 C220.2,264.3 220.7,265.4 221.4,266.7 L228.3,256.5 L228.3,256.5 Z" id="Shape" fill="#89AFDC"></path>
                <path d="M125.9,226.6 L122.1,225.9 L119.3,222.3 L121.4,220.1 L119.5,216.3 L122.4,214.6 L120.5,209.8 L122.4,208.4 L121.2,204.3 L117.4,207.1 L115,205.9 L123.6,193.5 L127.7,192.8 L132.7,179.7 L123.9,176.9 L122.3,174.1 L119.2,174.3 L113.5,171.4 L113,167.4 L109.6,169.1 L105.3,163.9 L103.7,161 L100.4,160.3 L99.5,157.4 L99.2,157.6 C98.9,157.6 98.5,157.8 98,157.8 C97.7,158 97.5,158 97.1,158 C94.7,158.3 93.8,159.6 93.8,162 C93.6,163.9 92.8,165.4 91.2,166.1 C90,166.8 88.3,167 86.9,167.1 C85.3,167.3 84,168.3 83.5,169.9 C83,171.8 82.8,172 80.7,172 C80,172 79.3,171.8 78.6,171.7 C77.4,171.4 76.2,170.5 74.8,171 C74.6,171.2 74.1,171 73.9,171 C73.7,169.8 73.7,168.8 73.4,167.7 C73.1,166.7 72.4,165.8 70.8,166.1 C71,166.8 71.3,167.3 71.3,167.8 C71.5,169.9 71.5,171.8 71.6,173.8 C71.8,175.4 70.7,176.2 69,176.2 C66.2,176.4 64,174.6 61.6,173.4 C61.3,173.2 60.6,173.1 60.2,173.1 C57.6,173.3 55.2,173.4 52.6,173.6 C52.3,173.6 51.7,173.9 51.6,173.9 C51.9,174.9 52.8,176 52.8,176.8 C52.6,177.8 51.8,178.7 51.2,179.6 C51.2,179.8 51.4,179.8 51.4,179.9 C51.9,179.7 52.4,179.6 53,179.4 C53.3,179.2 53.7,179.6 54,179.6 C54.7,179.9 55.2,180.6 55.9,180.8 C58,181.3 59.5,182.7 61.1,183.7 C62.3,184.7 63.2,186.1 64.2,187.5 C64.4,187.7 64.4,187.8 64.4,188 C64.2,188.7 64.4,189.7 64.1,190.4 C63.4,191.6 63.1,192.6 63.9,193.8 C64.1,194 63.9,194.1 63.9,194.1 C64.4,194.8 64.9,195.8 65.8,196.3 C67,197 68,197.7 67.9,199.2 C67.9,199.4 68.1,199.5 68.1,199.7 C68.8,201.8 68.8,204 67.8,206.1 C67.1,207.3 66.6,208.9 66.1,210.4 C65.8,211.4 65.8,212.6 65.4,213.7 C64.4,216.1 63.3,218.5 62.1,220.9 C61.2,222.5 60.9,224.3 59,225 L60.9,226.6 L61.1,229 L71.6,234.2 L74.9,232.3 L81.8,236.6 L84.7,239.2 L91.1,239 L91.1,239 L91.1,234.9 C91.1,233.7 92.1,232.1 93.2,231.8 C94.9,231.1 96.6,230.6 98.5,230.1 C99.2,229.9 100.2,229.9 100.9,230.3 C102.8,231 104.3,232.7 106.6,231.9 C106.8,231.9 106.9,232.1 106.9,232.1 C107.6,232.4 108.1,233 109,233.3 C110.6,234 112.3,234.7 114,235.2 C114.3,235.4 115,235 115.6,234.9 C116.5,234.6 117.5,234.2 118.2,233.7 C119.2,233 120.4,232.1 121.3,231.1 C122.2,230.1 122.9,229.2 124.2,229.2 C124.5,229 125.1,229 125.4,228.7 L125.7,228.7 L125.9,226.6 L125.9,226.6 Z" id="Shape" fill="#89AFDC"></path>
                <path d="M101.8,159.2 L104.9,159.9 L106.6,163.3 L110.2,167.6 L114.2,165.5 L114.9,170.5 L118,172.1 L120.1,167.1 L123,165.4 L122,162.5 L119.6,161.8 L120.6,158.4 L114.9,155 L110.1,157.2 L106,155.3 L105.7,155.3 L105.7,155.5 C105.5,155.5 105.4,155.7 105.4,155.7 C104.5,156 103.5,156.4 102.6,156.7 L102.6,156.7 L102.4,156.9 C102.2,156.9 102.2,156.9 102.2,157.1 L102.2,157.1 L101.5,157.3 L101.8,159.2 L101.8,159.2 Z" id="Shape" fill="#89AFDC"></path>
                <path d="M214.5,241.7 L216.9,238.8 L219.3,239 L220.5,236.2 L212.7,231.5 L210.3,233.2 L208.4,237.2 L209.1,240.1 L207.9,240.4 C209.8,242 211.9,243.5 213.9,245.1 L214.2,245.4 L214.5,241.7 L214.5,241.7 Z" id="Shape" fill="#89AFDC"></path>
                <path d="M205,260 C203.8,259.1 202.2,258.8 200.9,258.1 C198,256.7 194.9,255.3 191.9,254 C190,253 187.9,252.6 186.9,250.6 C186.7,250.3 186.6,249.7 186,249.6 C184.4,248.9 183.1,248 181.5,247.5 L181.3,247.5 C180.4,247.3 179.4,247.3 178.5,246.8 C176.9,245.6 175.2,244.4 173.8,243 C172.6,241.8 172.1,240.1 171.7,238.3 C171.2,235.7 169.8,233.6 167.7,232.1 C167.2,231.8 166.1,231.8 165.6,231.2 C164.4,230.2 163.4,229.1 162.2,228.3 C161.2,227.6 160.3,226.6 160.3,225.5 C160.3,223.6 159.1,221.4 161.3,220 C161.5,219.8 161.5,219.5 161.6,219.3 C161.3,219 160.9,218.4 160.4,218.1 C158.7,216.5 158.8,215.2 161.1,214.3 C162,214 162.8,213.6 163.9,213.3 C165.8,212.8 167.2,210.7 169.4,211.2 L169.4,211.2 L169.4,208 L167.2,206.8 L170.1,204.4 L161.8,203.2 L160.2,199.4 L151.6,201.8 L148.2,201.1 L146.5,204.4 L145.6,206.3 L142.2,206.8 L140.3,205.1 L137,209.9 L132.5,205.4 L130.4,209.2 L125.7,210.8 L123.1,209.8 L121.2,211 L123.1,216 L120.3,217.6 L122,221 L119.9,223.1 L122,225.7 L126.1,226.6 L126.1,229 C128.2,229.5 129.4,228.3 130.4,226.6 C131.6,224.7 135.1,223.7 136.9,224.5 C138.6,225.2 140.2,226.1 141.9,226.9 C143.5,227.8 144.8,229 145.3,230.9 C145.6,232.1 145.8,233.5 146.2,234.7 C146.4,235.6 146.5,236.6 146.7,237.5 C146.7,237.7 146.7,238.2 146.9,238.2 C148.1,239.4 149.3,240.6 150.3,241.6 C151.7,243 153.2,244.4 154.6,245.7 C155.8,246.7 157,247.8 158.4,249 C158.7,249.3 159.4,249.7 159.6,250 C160.8,251.2 161.7,252.6 163,253.6 C164.2,254.6 165.8,255.5 167.7,255.5 C169.8,255.5 171.7,255.7 172.7,257.9 C172.9,258.2 173.4,258.4 173.7,258.8 C175.3,260 177,261 178.9,261.6 C180.1,261.8 180.3,262.6 180.5,263.7 C180.7,264.7 180.8,266.1 182.6,266.1 C182.8,266.1 182.9,266.4 183.1,266.4 C183.4,267.1 184.1,267.4 184.7,266.7 C185.4,266 186.1,266.4 186.6,267 C186.9,267.7 187.5,268.6 187.8,269.4 C188.5,271.3 189.7,273 190,274.9 C190.3,276.3 190.7,278 189.3,279.2 C189.1,279.4 189,279.9 189,280.4 C189.2,282 189,283.2 187.4,283.8 C187.4,283.8 187.4,284 187.2,284.1 C189.6,284.8 192.7,283.2 193.2,281 C193.4,280.7 193.2,280 193.2,279.6 C193.4,278.9 193.4,278.4 193.5,277.7 C193.8,276.3 195.2,276.5 196.3,276.1 C197.3,275.8 198,274.9 197.5,273.9 C197.2,273 196.5,272.3 195.9,271.8 C195.2,271.3 194.3,270.8 193.5,270.6 C192.8,270.3 192.5,269.9 192.5,269 C192.3,267.4 193,266.1 193.5,264.9 C193.8,263.9 194.7,262.8 195.4,261.8 C195.6,261.5 196.1,261.3 196.4,261.1 C198.5,260.6 200.2,261.8 201.9,262.7 C203.5,263.4 204.7,264.9 205.9,266 C206.6,266.7 207.3,266.3 207.5,265.5 C207.7,265 207.7,264.5 207.5,263.9 C207.8,261.9 206.4,260.8 205,260 L205,260 Z" id="Shape" fill="#89AFDC"></path>
                <path d="M84.6,240.2 L81.3,237.4 L74.9,233.6 L71.6,235.5 L60.1,229.8 L59.9,227.4 L57.7,225.5 L57.5,225.5 C54.9,225.5 52.5,223.9 50.1,224.5 C49.9,224.5 49.8,224.3 49.6,224.3 C48.7,224 47.7,223.3 46.8,222.9 C46.5,222.7 46.1,222.7 45.8,222.7 C45.5,222.7 44.8,222.7 44.4,222.5 C44.1,222.3 43.4,222 43,222 C40.2,221.8 37.8,220.4 35.4,219.2 C33.8,218.5 32.8,217 30.9,217.3 C30.7,217.3 30.7,217.1 30.6,217.1 C29.4,216.8 28,216.6 26.8,216.2 C26.1,216 25.6,215.9 24.9,215.7 C23.5,215 22.8,213.1 20.9,213.5 C20.6,213.7 20,213.2 19.7,213.2 C19.2,213.4 18.5,213.5 18.3,213.9 C17.6,215.5 17.1,216.1 15.5,215.5 C14.3,214.8 13.3,215.2 12.2,215.7 C11.7,216 10.6,216.4 11.3,217.3 C12.3,218.5 12,219.7 11.5,220.7 L11.5,221 C11.3,222.6 12.7,224.4 10.6,225.7 L10.6,225.9 L14.6,225.7 L14.9,227.9 L19.2,229.3 L22.6,229.1 L24.5,231 L25.7,235.1 L20.7,238.7 L17.3,249.7 L14,250.6 L15.9,256.1 L13,260.4 L14.4,263.8 L10.1,266.7 L9.2,271.4 L9.4,271.4 C9.7,271.6 10.3,271.6 10.8,271.7 C12.7,272.4 14.8,273.3 15.5,275.3 C16,276.9 16.2,278.6 16.2,280.3 C16.2,281.7 16.7,282.5 17.8,283.2 C19.9,284.4 21.9,284.2 23.8,282.9 C25.4,281.9 27.1,280.8 28.8,280.5 C30.5,280.2 32.4,280.7 34.1,280.8 C35.7,281.1 37,281.7 38.4,282.2 C39.6,282.5 40.8,282.9 41.8,283.4 C43.9,284.4 45.9,284.3 48,283.7 C48.2,281.3 49.2,279.6 51.3,279.2 C52.2,279 53,279.2 53.9,279.2 C55.5,279.2 56.1,278.3 56.3,276.8 C56.3,276.5 56.3,275.8 56.6,275.6 C58.5,273.7 60.2,271.6 63,270.8 C64,270.5 64,270.1 63.3,269.2 C62.6,268.5 61.9,267.6 61.7,266.8 C61.4,264 61.5,261.5 63.6,259.4 L68.8,254.2 C69.7,253.3 70.7,252.6 71.7,251.8 C71.9,251.5 72,250.8 72.4,250.2 C73.4,249 75.2,248.8 76.5,248.6 C77.2,248.4 78.1,248.4 78.7,248.3 C81.1,247.3 83.5,246.2 85.9,245.4 C89,244.2 90.9,241.6 90.6,238.9 L84.6,240.2 L84.6,240.2 Z" id="Shape" fill="#89AFDC"></path>
                <path d="M9.7,266.7 L13.8,263.9 L12.6,260.6 L15.5,256.3 L13.6,250.1 L17.4,249.1 L20.7,238.2 L25.4,234.9 L24.4,231.8 L23,230.6 L19.7,230.8 L14.7,229.1 L14.4,227.2 L11.1,227.4 L10.9,228.1 C10.7,228.4 10.7,228.6 10.7,229.1 C10.5,230.3 10.4,231.9 10.2,233.1 C10,234.7 10,236 9.5,237.4 C8.5,240 7.1,242.4 5.9,244.8 C5.4,245.8 4.9,246.9 4.2,247.6 C2.1,249.2 0.4,250.9 -0.1,253.5 C-0.3,254.5 -0.3,255.1 0.8,255.2 C1.8,255.4 2,255.9 1.8,256.8 C1.6,257.5 1.8,258.2 2.8,258.2 C3,258.2 3.5,258.5 3.5,258.9 C3.8,261 3.2,263 2.3,264.9 C1.6,266.6 0.4,268.3 -0.5,270.1 L-0.2,270.4 C0.3,270.2 0.8,270.1 1.4,270.1 C2.4,269.9 3.3,269.8 3.8,270.8 C5.2,273 5.7,273 8.1,272.5 C8.3,272.3 8.4,272.3 8.8,272.3 L9.7,266.7 L9.7,266.7 Z" id="Shape" fill="#89AFDC"></path>
                <path d="M266.3,249.5 L266.8,245.7 L269.2,242.4 L265.8,240.8 L265.6,244.8 L260.4,246.7 L253,245.7 L242.1,249.1 L240.4,251.2 L235.4,251.9 L233,254.8 L228.7,255.8 L229.7,256.8 L223,268.2 C224,269.2 224.6,270.4 225.9,270.8 C226.9,271 228,271.3 229,271.8 C230.4,272.3 230.6,273.2 229.7,274.6 C229.4,275.1 229.2,275.5 229.9,275.8 C230.8,276.3 231.8,276.8 232.3,277.7 C232.8,278.7 233.5,278.4 234.2,278.4 C235.2,278.2 236.3,277.7 237.5,277.7 C239.2,277.5 240.9,277.9 242.7,277 C243,276.8 243.7,277.2 244.3,277.3 C244.6,277.5 245.2,277.8 245.7,278 C246.9,278.2 247.8,278.9 247.4,280.4 C247.7,280.4 247.9,280.6 248.1,280.4 C250,279.4 251.5,279.4 253.3,280.7 C253.5,280.9 254,280.5 254,280.5 C254,279.5 254.2,278.6 253.8,277.7 C253.5,277.2 252.6,277 251.9,276.7 C250.5,276 249.1,275.5 247.8,274.8 C247.1,274.5 246.6,274.3 246.2,274.1 C244.3,272.5 243.4,270.7 244.1,268.1 L247.7,268.1 C246.5,267.4 245.5,266.7 244.4,266 C242.8,265 242,263.2 241.1,261.7 C240.2,260 240.9,257.2 242.5,256.2 C242.8,256 243.5,256 243.7,256.2 C244.4,256.9 244.9,257.6 245.6,258.3 C246.3,259.2 247.2,260.2 248,261.2 C248.3,258.3 250.1,259.8 251.4,259.8 C251.2,259.5 251.2,259.5 251.2,259.1 C250.7,257.9 250,256.7 249.5,255.5 C249,254.3 249.5,253.4 250.7,253.1 C251.7,252.9 252.6,252.4 253.3,251.5 C253.8,251 254.7,249.8 255.9,250.8 C256.1,251 256.6,250.8 256.9,250.6 C257.9,250.1 258.8,248.7 260.2,249 C261.2,249.2 262.3,249.2 263.3,249.3 C264.3,249 265.3,249.3 266.3,249.5 L266.3,249.5 L266.3,249.5 Z" id="Shape" fill="#89AFDC"></path>
                <path d="M342.3,264.8 C342.6,265 343,266 343,266.7 C342.8,267.7 342.7,268.6 342.3,269.6 C342.1,270.3 342,270.8 342,271.5 C342,272 342.2,272.7 342.7,273.1 L342.9,273.3 L345,272.6 L344.5,270.5 L346.1,268.9 L345.8,264.4 L350.6,263.2 L355.6,258.5 L360.3,258.3 L368.6,250.4 L376.5,244.7 L378.2,245.4 L386.3,240.4 L388.5,240.6 L389.9,238.9 L385.4,234.4 L386.1,232.2 L381.3,223.9 L383.2,221.8 L383,218.4 L382.8,218.2 L383,218 L377.5,218.5 L376.1,213.5 L374.2,210.6 L369.9,209.7 L363.9,213 L363.7,213.5 L363.9,213.7 C363.7,213.9 363.7,214 363.6,214.2 C361.5,218.3 358.9,221.6 354.1,222.5 C352.5,222.8 351,223.2 349.8,224.4 C349.5,224.7 348.8,224.9 348.1,225.1 C346.5,225.4 345,225.6 343.4,226.1 C341.3,227 339.3,226.4 337.5,225.2 C337,225.5 336.6,225.9 336.3,226.2 C335.4,226.9 333.9,226.5 333.2,225.9 C332.7,225.4 332.2,224.9 331.8,224.2 C331.3,223.2 330.8,223.3 330.1,224 C329.2,224.9 328.2,225.2 327.2,224.7 C326.5,224.4 325.8,223.7 325.1,223.1 C324.1,223.6 323.2,224.3 322.2,224.8 C320.8,225.3 319.4,225.7 318.1,226 C317.1,226.3 315.7,226.5 314.8,227 C313.1,228 311.5,229.2 310.1,230.4 C308.2,232.1 306.3,233.8 304.9,236.1 C303.5,238.2 301.5,239.7 298.7,239.5 C298,239.5 297.5,239.7 296.8,239.7 C294.7,240.4 292.7,241.1 290.3,240.9 C290,240.9 289.8,241.2 289.3,241.8 C290.5,242 291.4,242 292.2,242.1 C292.7,242.3 293.2,242.8 293.4,243.1 C293.7,243.8 293.4,244.5 292.5,244.8 C291.5,245.1 290.9,245.8 290.6,246.9 C290.4,247.6 289.9,248.5 289.4,248.6 C287.5,249.3 285.8,249.8 283.9,250.2 C283.2,250.4 282.7,250 282,249.9 C281.7,250.2 281.3,251.1 280.8,251.3 C278.7,251.6 276.5,251.8 274.3,252.2 C273.6,252.4 272.9,252.7 272.4,253.2 C271.4,254.4 270.7,255.8 270,257 C269.8,257.3 269.7,258.2 269.8,258.7 C270,259 270.7,259.4 271,259.4 C271.7,259.4 272.4,259.2 273.1,259.2 C273.8,259 274.7,258.9 274.8,259 C275.1,259.7 275.1,260.6 275.3,261.2 C275.5,262.4 274.1,264.1 276.3,264.6 C276.5,264.6 276.5,264.8 276.5,264.9 C277,265.8 277,266.8 276.7,267.7 C276.5,268.2 276.5,268.9 276.5,269.4 C276.7,270.6 276.3,271 275.3,271.3 C273.7,271.5 273.2,270.6 272.9,269.4 C272.6,269.7 272.2,269.9 271.9,270.1 C272.4,271.3 273.1,272 274.5,272 C275.4,272 276.2,272.3 277.1,272.5 C278,272.7 278.8,272.8 279.7,273.2 C280,273.4 280.4,273.5 280.4,273.7 C280.6,274.4 280.7,275.1 280.9,275.8 C281.1,277 282.1,278.2 282.8,279.1 C283.8,280.3 285,280.1 286.2,280.1 L288.1,280.1 C288.4,280.1 289,280.4 289,280.4 C289,282.3 290.2,282 291.4,281.8 C291.7,281.6 292.4,281.8 292.8,281.8 C293.5,282 294,282 294.9,282 C295.6,282 295.9,281.8 296.5,282.7 C297.2,283.9 299.8,284.8 301.2,284.6 C302.9,284.4 304,283.6 305,282.2 C306,280.6 307.1,279.3 307.2,277.4 C307.7,277.2 308.4,276.9 308.9,276.7 C310.1,276.4 311.3,275.8 312.3,276 C314.5,276.3 316.6,277 318.8,277.9 C320.9,278.6 322.6,279.8 324.7,277.9 L324.9,277.7 C327.3,277 329.4,275.6 330.6,273.4 C330.8,273.1 331.3,272.7 331.5,272.4 C332.7,270 334.1,268.3 337,267.7 C338.6,267.4 340.4,267.4 341.3,265.1 C339.9,264.8 341.4,264.3 342.3,264.8 L342.3,264.8 Z" id="Shape" fill="#89AFDC"></path>
                <path d="M171.1,206.8 L171.1,211.1 L171.8,211.4 C172,211.6 172.1,211.6 172.3,211.6 C172.1,212.1 172,212.6 172,213.5 L178,211.9 L183,213.6 L183.3,210.3 L185.5,208.7 L184.8,205.8 L190.5,202 L189.3,199.2 L187.6,201.4 L181.4,202.6 L177.6,205 L172.3,203.6 L169.9,205.7 L171.1,206.8 L171.1,206.8 Z" id="Shape" fill="#89AFDC"></path>
                <path d="M206.4,126.3 L222.6,125.4 L222.3,121.1 L219.7,121.3 L212.5,119.4 C212.2,119.6 212,119.7 211.8,120.3 C211.5,121 210.6,121.5 209.7,122.2 C209.4,122.5 208.7,122.5 208.5,122.9 C207.8,123.9 207.1,125.1 206.4,126.3 L206.4,126.3 Z" id="Shape" fill="#89AFDC"></path>
                <path d="M171.6,217.3 C171.9,218.2 172.6,219 173.2,220.1 C173.9,218.2 174.4,216.8 175.1,215.4 C175.4,214.7 176.1,214.7 176.7,215.4 C177.7,216.6 178.8,217.6 179.6,218.8 C179.9,219.5 180.6,220 180.6,220.9 C181.1,224.9 183.2,227.6 186.8,229.3 C187.1,229.5 187.5,229.6 187.8,230 C188.3,230.7 188.8,231.4 189.4,231.9 C190.3,231.7 191,231.6 191.3,231.6 C192.9,232.1 194.4,232.6 196,233.5 C196.2,233.7 196.3,233.7 196.7,233.8 L198.8,235.4 L199,235.6 L198,233 L189.9,225.9 L185.8,218.1 L187,214.8 L190.1,216.7 L193.9,214.5 L200.4,215.5 L210.6,216.5 L211.8,214.3 L209.4,212.9 L208.4,208.2 L206.2,209.6 L198.3,208.9 L191.1,203.2 L185.9,206.6 L186.6,209.5 L184.2,211.2 L183.9,215.3 L178,213.2 L171.1,215.1 C170.9,215.4 170.6,215.8 170.4,216 L171.4,217 C171.2,216.7 171.4,216.9 171.6,217.3 L171.6,217.3 Z" id="Shape" fill="#89AFDC"></path>
                <path d="M108.5,155.1 L108.2,155.1 L109.9,155.8 L114.9,153.6 L121.8,157.7 L120.8,161 L121.8,161.3 L123.4,155.8 L122.7,151.8 L127.4,151.1 L130.3,147 L127.5,146 L131.1,141 L131.3,137.2 L131,137.5 L130.8,137.5 C130.6,137.3 130.3,137.3 130.1,137.2 C129.4,136.9 128.7,136.5 128,136.5 C126.4,136.5 124.7,136.5 123.2,136.7 C121.1,137 119.1,137.7 117.9,139.5 C117.2,140.5 116.7,141.4 116.5,142.4 C115.8,145 114.1,146.7 112.5,148.8 C112.2,149.5 112.2,149.8 112.3,150.4 C112.5,150.7 112.6,151.4 113,152.3 C111.4,152 110.4,151.8 109.4,151.6 C109.1,151.6 108.7,151.8 108.4,151.9 C108.1,152.1 107.7,152.4 107.2,152.9 C108.1,153.1 108.8,153.2 109.4,153.4 C109.7,154.7 109.1,154.9 108.5,155.1 L108.5,155.1 Z" id="Shape" fill="#89AFDC"></path>
                <path d="M225.5,231.2 L232.7,236.4 L231.5,240.5 L236.5,239.3 L236.5,234.3 L239.6,232.9 L239.6,230.7 L234.5,225.2 L236.2,221 L234.5,217.6 L232.6,219 L226.4,217.3 L226.9,213.3 L222.4,211.6 L221.4,208.3 L217.2,204 L213.8,204.5 L209.1,207.4 L210,211.9 L212.9,213.5 L211.6,216.2 L211.7,216.2 L213.3,218.1 L211.9,222.1 L216.2,224.3 L214,226.9 L215.3,229.7 L213.6,230.7 L220.9,235.2 L225.5,231.2 Z" id="Shape" fill="#89AFDC"></path>
                <path d="M240.2,95.3 L237.4,97 L230,93.4 L226.2,94.8 L226.2,95.5 C226.4,96.7 226.7,98.3 226.5,99.5 C226.3,101.6 225.6,102.3 223.7,102.4 C222.3,102.6 221.6,101.7 220.8,100.8 C219.4,99.8 218,98.6 216.7,97.4 C214.5,98.4 212.4,99.8 211.9,102.9 C211.6,105.5 210,107.9 211.6,110.3 L216.4,107.7 L228.5,107.9 L231.9,106 L241.5,110.7 L245.1,109.3 L247.9,106 L243.6,97.2 L240.2,95.3 L240.2,95.3 Z" id="Shape" fill="#89AFDC"></path>
                <path d="M124.6,194.2 L117,205.2 L117.7,205.5 L122.1,202.4 L123.7,207.6 L126.6,208.5 L130.2,207.4 L133,202.8 L137.5,207.4 L140.6,202.6 L143,204.9 L145.4,204.3 L146.1,203.1 L147.6,200.4 L145.2,200.4 L141.3,197.4 L142,193.7 L136.4,193 L136.4,190.6 L134.7,190.6 L134.4,193 L128.5,193.3 L124.6,194.2 Z" id="Shape" fill="#89AFDC"></path>
                <path d="M224.8,243.3 L224.6,243.6 L226.7,241.9 L230.3,240.9 L231.5,236.9 L225.5,232.6 L221.5,236 L220,239.3 L224.8,243.3 Z" id="Shape" fill="#89AFDC"></path>
                <path d="M129,86.5 C130,87.7 129.7,88.9 129.7,90.3 C129.7,91.3 129.9,92 130.7,92.5 C131.4,93 131.9,93.7 132.6,94.6 C134.2,96.5 136.4,97.2 138.6,96.7 C140.5,96.4 142.6,95.7 144.3,94.8 C146.2,93.9 148.1,92.9 149.3,91 C150,90 150.9,89.1 152.2,88.6 C153.2,88.3 154.1,87.4 154.6,86.5 C155.1,85.3 155.1,83.7 155.1,82.4 C155.1,81.4 155.4,81.2 156.3,81.2 C157.2,81.2 157.5,81.5 157.3,82.4 C157.1,83.4 157,84.5 156.6,85.3 C156.4,86 156.4,86.5 156.6,87.2 L156.6,87.2 C156.8,87.4 156.8,87.5 156.9,87.7 L157.6,88.7 L160.2,89.4 L160.9,82.2 L163.3,80.6 L164.5,77.2 L161.7,73.2 L166,71.6 L166.7,69.2 L163.6,67.8 L162,54.5 L166.3,48.5 L170.6,48 L172.5,33.9 L174.9,33.6 L180.2,21 L183.6,21.2 L184.8,17.6 L190.3,17.8 L190.1,14.5 L194.1,12.8 L200.1,15.6 L206.1,15.4 L208.7,8 L217.3,8.7 L217.6,12 L221.7,8.4 L221.4,8.2 L221.2,8.2 C218.4,8.5 216.4,7.5 214.7,5.4 C215.4,5.2 216.1,5.2 216.6,5.6 C217.6,6.1 218.7,5.8 219,4.7 C218.3,4.4 217.4,4 216.6,3.7 C215.4,3.2 214.4,3 213.7,4.2 C213.5,4.4 213,4.4 212.7,4.4 C211.7,1.3 211.7,1.3 208.9,1.6 C208.9,1.8 208.7,1.9 208.9,2.3 C209.4,3.5 209.1,4.2 207.9,4.5 C206.7,4.8 206.9,3.6 206.7,2.9 C205.3,3.6 205.8,6.2 203.3,5.8 C203.6,4.2 203.8,2.9 204,2 C203.3,2.2 202.3,2.5 201.2,2.9 C200.9,3.9 200.9,3.9 199.3,4.5 C199,4.7 198.6,4.8 198.4,5.4 C197.2,7.3 196.7,7.5 194.6,6.8 C194.3,6.6 194.1,6.6 194.1,6.6 C193.4,7.3 192.9,8.2 192.4,8.2 C191,8.2 190.5,8.9 190,10.1 C189.8,10.4 189.5,10.6 189.1,10.6 C188.8,10.6 188.4,10.3 188.4,9.9 C188.1,9.4 187.7,8.9 187.4,8 C186.7,9 186.2,9.7 185.5,10.4 C184.8,11.1 183.9,12.3 183.1,12.5 C181.9,12.7 181.2,13.4 180.3,14.2 C180.8,14.5 181.3,14.9 181.9,15.2 C182.1,15.2 182.1,15.4 182.2,15.4 C181.9,15.9 181.9,16.4 181.3,17 C179.4,18.9 177.7,20.4 176,22.3 C175.5,22.8 175,23.5 174.8,24.4 C174.5,25.6 174.1,26.5 173.1,27.3 C172.4,28 171.7,28.9 171,29.7 C170.3,30.9 169.8,32.3 168.6,33 C167.7,33.5 167.4,34.4 167.6,35.4 C167.6,35.7 167.4,36.1 167.3,36.4 C166.4,37.8 165.7,39.2 164.7,40.5 C163.7,41.7 162.8,43.1 161.6,44.3 C159.9,45.9 158.2,47.1 156.4,48.6 C155.7,49.3 154.3,49.3 154.3,50.7 C154.1,52.1 153.1,52.9 151.9,52.9 C150,52.7 149,53.9 147.6,54.8 C147.3,55 147.1,55.1 146.7,55.3 C142.4,56.9 138.6,59.4 135,62.2 C134.3,62.7 133.4,63.2 132.9,63.9 C130.8,66.3 129.5,69.1 128.9,72.3 C128.7,73.5 128.2,74.7 128.2,75.7 C128,78.6 128.2,81.6 128.2,84.5 C129,85.6 128.9,86.3 129,86.5 L129,86.5 Z" id="Shape" fill="#89AFDC"></path>
                <path d="M267.9,245.9 L267.2,250.2 C267.5,250.4 268.1,250.5 268.4,250.5 C269.3,250.5 270.3,250.3 271.2,250.2 C273.1,249.7 274.8,248.8 275.7,246.8 C276,246.1 276.2,245.2 277.3,244.9 C280.1,244 282.8,243 285.7,242 C285.7,240.4 284.1,240.8 283.1,240.4 C280.9,239.7 278.6,239.2 277.9,236.6 L277.7,236.3 L277.5,236.1 L274.9,237 L271.6,236.3 L266.6,239.7 L270.7,241.6 L267.9,245.9 L267.9,245.9 Z" id="Shape" fill="#89AFDC"></path>
                <path d="M243.1,247.4 L252.9,244.3 L260.3,245.3 L264.6,243.7 L264.9,239.7 L271.6,235 L275,235.7 L277.4,234.8 L277.4,234.6 L277.2,234.6 C276.3,233.9 275.5,233 274.6,232.5 C273.2,231.5 273.2,231.3 274.3,229.9 C275,228.9 275.5,228 275.3,226.6 C275,225.4 275.5,223.8 276,222.5 C276.5,221.3 277.6,220.1 278.4,218.9 L271.5,217 L266,216.8 L260,223.2 L252.2,223 L250.1,223.9 L243.6,223.7 L238.4,224.4 L238.6,221.8 L237.4,221.6 L236.2,224.5 L241.2,230 L241,233.3 L237.9,234.5 L238.1,238.8 L242.9,242.6 L243.1,247.4 L243.1,247.4 Z" id="Shape" fill="#89AFDC"></path>
                <path d="M227.7,254.6 L232.6,253.4 L234.8,250.5 L239.8,249.8 L241.5,247.9 L242,247.6 L241.4,243.6 L237.2,240.3 L231,241.7 L227.2,242.8 L224.6,245.3 L224.3,249.6 L226.4,253.4 L227.7,254.6 Z" id="Shape" fill="#89AFDC"></path>
                <path d="M71.2,94.9 C71,94.9 70.9,94.4 70.9,94.2 C70.7,93.9 70.7,93.5 70.7,93.2 C68.8,93.7 67.9,94.8 68.6,95.8 C68.9,96.5 69.6,97 70.2,97.5 C71.1,98.2 71.4,99.4 70.9,99.9 C70.6,100.2 69.9,100.6 69.3,100.8 C68.1,101.1 67.7,101.8 67.2,102.9 C67.4,103.1 67.4,103.2 67.4,103.2 C68.6,102.9 69.8,102.3 71,102 C71.2,102.2 71.2,102.2 71.3,102.3 C71.1,103 71.1,103.7 70.6,104.2 C68.9,105.9 68,108.2 67,110.2 C66.8,110.5 66.8,110.9 66.8,111.4 C67,111.4 67,111.6 67.1,111.6 C67.4,111.1 67.6,110.6 68,109.9 C68.5,108.9 69,107.8 69.9,107 C70.2,106.7 71.3,106.7 71.8,106.8 C72.3,107.1 72.7,108 72.7,108.7 C72.9,110.3 72.9,111.8 71.5,113 C70.8,113.7 70.3,114.4 69.4,114.9 C68.7,115.6 67.8,116.5 68.4,117.3 C68.7,117.6 70,117.6 70.8,117.5 C72.5,117.3 74.2,117.2 76,116.8 C76,118.4 76.3,119.6 75.1,120.4 C74.8,120.7 74.8,121.6 74.9,122 C75.2,123.2 76.1,124.2 76.6,125.4 C76.8,125.7 76.9,126.1 76.8,126.4 C76.3,127.4 76.5,128.8 75.2,129.5 C74.9,129.7 74.9,130.5 74.5,131.1 C74.3,131.4 73.8,132.3 73.5,132.3 C71.6,132.3 69.7,132.1 68,132 C67.8,132 67.5,131.7 67.3,131.3 C67,131 66.8,130.4 66.4,130.1 L66.1,130.1 C66.1,130.4 65.9,131 65.9,131.3 C66.6,133 66.2,133.7 64.9,134.7 C65.6,134.9 66.3,135 67,135.2 C67.2,137.6 66.1,139.5 64.1,140.5 C62.5,141.2 61,141.5 59.4,141.9 C58.5,142.1 57.8,142.2 58,143.5 C58.2,144.5 59,144.9 60.1,144.7 C60.8,144.5 61.3,144.9 62,145 C62.5,145.2 63,145.3 63.6,145.5 C64.3,145.8 65.2,146.2 65.3,146.5 C65.8,147.9 66.9,148.2 68.2,148.2 C68.7,148.2 69.2,148.5 69.8,148.9 C69.5,149.4 68.9,150.1 68.4,150.5 C66.3,151.2 64.3,151.5 62,151.4 C61.5,151.4 60.8,151.7 60.3,152.1 C57.9,154.5 54.8,155.9 52,157.6 C52.7,158.6 53.6,158.6 54.6,157.8 C54.9,157.5 55.6,157.3 56.3,157.1 C57.9,156.8 59.6,156.1 61,157.4 C62.2,158.4 62.6,158.4 63.4,157.1 C63.7,156.2 64.4,155.9 65.3,155.9 C67.4,155.9 69.4,155.7 71.3,155.7 C72.2,155.7 73,155.5 73.7,155.5 C76.3,155.5 78.7,156.5 81.1,156.2 C82.7,156 84.4,156.9 86.1,156.5 C88.3,156.2 90.6,155.5 92.8,154.8 C93.5,154.6 94,153.9 93.8,153.2 C92.4,152.9 91.2,152.5 90,152.2 C89.7,152 89.3,151.5 89.3,151.2 C89.3,151 89.6,150.7 90,150.5 C90.4,150.3 90.9,150.2 91.2,149.8 C92.8,148.6 94.5,147.4 95.9,146.2 C96.9,145.2 97.8,143.8 98.7,142.4 C98.9,142.2 98.7,141.9 98.5,141.7 C97.8,140.8 97.1,139.8 96.3,139.3 C94.9,138.3 93.4,137.9 91.6,138.1 C90.9,138.3 90.2,138.1 89.2,138.1 C89.9,137.1 90.2,136.5 90.8,135.9 C91.8,134.7 91.8,134.2 90.6,133.5 C89.9,133 89.9,132.5 90.3,131.9 C90.5,131.4 90.8,130.7 90.8,130.2 C90.6,128.6 90.5,127.3 90.1,125.7 C89.8,124.5 89.4,123.3 88,122.8 C87,122.5 86.4,121.6 86.4,120.7 C86.2,119 86.2,117.3 86.1,115.5 C85.9,113.9 85.4,112.6 85.1,111.2 C84.9,110.9 84.6,110.9 84.4,110.5 C83.4,109.6 82,109.5 80.8,109.5 C80.5,109.5 79.8,109.2 79.8,108.8 C79.6,108.5 79.6,107.9 80.5,107.8 C82.6,107.3 84.3,106.4 85.7,104.4 C87.4,101.6 89.7,99.4 91.6,97 C90.9,96 88,94.6 86.6,94.9 C84.7,95.2 83,95.6 81.1,95.9 C80.9,95.7 80.9,95.7 80.8,95.6 C81.5,94.6 82.2,93.5 82,92.2 C82,92 82.2,92 82.2,91.9 C83.1,91.6 83.9,91.2 84.6,90.7 C85.6,90 87,90.2 87.4,88.3 C85.8,88.1 84.5,87.8 83.1,88 C81.7,88.2 80.7,88.2 79.7,87.1 C79.4,88.1 79.2,89 78.7,89.9 C78.2,90.9 77.7,92.3 76.3,92.3 C74.7,92.1 73.9,92.8 73.4,94 C73.2,94.3 73.1,94.7 72.7,94.7 C72,94.8 71.7,94.9 71.2,94.9 L71.2,94.9 Z" id="Shape" fill="#89AFDC"></path>
                <path d="M153,105.3 C153.2,103.9 153.3,102.5 153.7,101.2 C153.5,101.4 153,101.9 152.7,101.7 C151.5,101.5 150.8,102.6 150.5,103.4 C149.8,104.8 148.6,105.5 147.1,105.3 C146.6,105.1 145.9,105.1 145.5,105.1 C143.8,105.8 142.1,106.5 141.4,108.5 C141.2,109.4 140.7,110.2 140.7,111.3 C140.5,112.3 140.4,113.7 140.7,114.6 C141.2,115.6 141,116.5 140.7,117.4 C140.5,117.7 140.5,118.3 140.7,118.4 C142.6,119.8 142.3,121.8 142.3,123.9 C142.8,124.1 143.5,124.1 144.2,124.2 C144.9,124.4 145.4,124.4 146.1,124.4 C146.6,124.2 147.3,124.1 147.7,123.5 C147.9,123.3 147.5,122.6 147.4,122.3 C146.7,121.3 147.1,118.9 148.1,118 C148.8,117.3 149.8,116.8 150.2,115.9 C150.7,114.9 151.9,114.3 151.8,112.8 C151.6,111.8 152.5,111.6 153.4,112.1 C153.7,112.3 154.3,112.4 154.4,112.3 C154.7,112 155.1,111.3 155.1,110.9 C155.1,110.6 154.4,110 154.1,109.9 C152.5,109.6 151.9,108.3 152.5,106.8 C152.6,106.5 153,106 153,105.3 L153,105.3 Z" id="Shape" fill="#89AFDC"></path>
                <path d="M133.9,251.2 C134.6,251.7 135.5,252.1 136.5,252.4 C137.4,248.4 139.4,244.6 139.3,240.5 L139.3,239.3 L139,239.3 C138.8,239.6 138.8,240.3 138.8,240.7 C137.6,241 136.2,241.7 135,241.9 C134,242.1 133.1,243.1 133.6,244.1 C134.1,245.1 133.8,245.8 133.8,246.9 C133,248.4 132.5,250 133.9,251.2 L133.9,251.2 Z" id="Shape" fill="#89AFDC"></path>
                <path d="M163.7,118.7 C163.9,118.5 164,118.4 164,118.2 C164.2,116.8 163.7,115.4 162.8,114.4 C162.5,114.7 162.1,114.9 161.8,115.3 C161.5,115.6 161.5,116 161.5,116.5 C161.2,117.2 159.9,117.4 159.6,116.7 C159.4,116.5 159.3,116.2 159.3,115.8 C156.5,116.8 156.4,117.4 157.4,121.5 C159.5,120.6 160.5,122.4 162.1,123.4 C161.9,122 162.4,121.5 163.7,121.3 C163.4,121.1 163,121.1 162.5,121 C162.5,119.4 162.5,119.4 163.7,118.7 L163.7,118.7 Z" id="Shape" fill="#89AFDC"></path>
                <path d="M152.1,118.5 C151.4,118.8 150.7,119 150,119.4 C149.3,119.6 149.3,119.9 149.5,120.8 C149.8,122.5 151.6,122 152.6,122.9 L152.9,122.9 C153.2,122 154.1,121.2 154.1,120.1 C154,119.4 153.3,118.5 152.1,118.5 L152.1,118.5 Z" id="Shape" fill="#89AFDC"></path>
                <path d="M198.6,97.2 C196.5,97.7 195.7,99.4 194.8,101 C194.5,101.5 195.1,102.9 195.5,103.9 C195.7,103.9 195.7,103.9 195.8,104.1 C196.5,103.1 198,102.4 197.7,100.8 C197.4,99.3 197.6,98.2 198.6,97.2 L198.6,97.2 Z" id="Shape" fill="#89AFDC"></path>
                <path d="M213.6,92.2 C213.4,92.5 214.3,93.4 214.6,94.1 C218.4,91.3 218.4,91.3 218.4,90.1 C217.7,90.1 216.8,90.3 216.2,90.1 C214.5,89.8 214,91 213.6,92.2 L213.6,92.2 Z" id="Shape" fill="#89AFDC"></path>
                <path d="M155.9,125.1 C155.9,125.3 156.2,125.4 156.4,125.8 C157.4,127 158.6,126.5 159.8,126.1 C160.3,125.9 160.8,125.8 161.4,125.4 C161.2,125.2 161.2,125.1 161.2,125.1 C160.5,124.9 160,124.8 159.3,124.8 C158.4,124.6 157.6,124.6 156.7,124.6 C156.4,124.4 156.1,124.8 155.9,125.1 L155.9,125.1 Z" id="Shape" fill="#89AFDC"></path>
                <path d="M82.2,61.9 C82,62.2 82,62.8 81.9,63.1 C82.1,63.1 82.1,63.3 82.2,63.3 C82.5,61.7 83.1,60.2 83.4,58.6 C84.3,57.9 85.1,57.4 85.8,56.7 C84.9,56.7 84.2,57 83.6,57 C82.4,57 81.7,57.7 81.4,58.9 C82.9,59.8 82.9,60.2 82.2,61.9 L82.2,61.9 Z" id="Shape" fill="#89AFDC"></path>
                <path d="M203.6,76.7 C202.6,76.5 201.7,76.4 200.7,76.2 C200.7,76 200.7,76 200.5,75.9 C200.2,76.6 199.8,77.1 199.3,78 C201.9,78.9 203.1,78.6 203.6,76.7 L203.6,76.7 Z" id="Shape" fill="#89AFDC"></path>
                <path d="M213.5,87.4 C215.7,88.4 215.9,88.4 217.1,87.2 C216.6,86.7 216.1,86 215.5,85.5 C214.8,86 214.1,86.7 213.5,87.4 L213.5,87.4 Z" id="Shape" fill="#89AFDC"></path>
                <path d="M104.4,72.4 C104.2,72.2 104.1,72.1 103.9,72.1 C101.7,73.7 100.1,75.5 100.1,78.5 C100.4,77.3 100.8,76.1 101.5,75.1 C102.2,73.9 103.4,73.2 104.4,72.4 L104.4,72.4 Z" id="Shape" fill="#89AFDC"></path>
                <path d="M170.9,128.9 C170.6,128.2 170.4,127.7 170,127 C169.8,127.2 169.7,127.2 169.3,127.2 C169,127.4 168.6,127.4 168.1,127.4 C168.3,127.7 168.3,128.3 168.4,128.3 C169.4,128.7 170,128.9 170.9,128.9 L170.9,128.9 Z" id="Shape" fill="#89AFDC"></path>
                <path d="M179.3,122.9 C178.6,122.6 177.9,122.2 177.4,122 C177.4,122.2 177.2,122.3 177.4,122.7 C177.8,123.4 178.3,123.4 179.3,122.9 L179.3,122.9 Z" id="Shape" fill="#89AFDC"></path>
                <path d="M56.3,116 L52.2,118.6 L53.9,120.2 L56.5,118.3 L58.1,121.6 L60.2,122.8 L60.4,122.6 C61.6,121.9 63.2,121.6 63.8,120.2 C64.3,119.3 64.5,119 63.6,118.3 C63.3,118 62.7,117.6 62.7,117.3 C62.7,115.6 62.7,113.9 63.9,112.3 C61.5,112.5 59.2,112.6 57.4,113 L57.1,112.8 L56.3,116 L56.3,116 Z" id="Shape" fill="#89AFDC"></path>
                <path d="M57.9,128.7 C58.1,127.8 57.7,126.8 58.1,125.9 C58.3,125 58.8,124.3 59.1,123.5 L57.2,122.5 L56,120.1 L53.8,121.7 L50.5,118.4 L55.5,115.3 L56.2,112.7 C56,112.5 55.9,112.5 55.5,112.4 C54.8,112.2 53.8,112.4 53.3,112.7 C52.3,113.7 51.4,114.8 50.5,116.1 C49.8,117.1 49.3,117.8 47.7,117.7 C46.3,117.5 44.9,117.4 43.6,117.2 C42.9,117 41.9,117 41.7,117.2 C41.5,117.9 41.5,118.6 41.5,119.3 C41.5,119.6 41.8,119.8 41.8,120 C41.6,120.5 41.6,121.2 41.3,121.7 C40.8,122.2 39.9,122.6 39.2,122.9 C38.2,123.4 38.2,123.8 39,124.5 C39.7,125 40.4,125.5 41.1,126.1 C41.8,126.8 41.8,128 40.9,128.2 C39.3,128.4 38.7,129.8 37.6,130.8 C37.8,131 37.9,131 37.9,131.1 C38.2,131.3 38.8,131.4 38.9,132 C39.1,132.7 38.6,132.9 37.9,133 C36.5,133.5 35.1,134.2 33.8,134.9 C34.5,137.3 31.9,136.8 31,137.7 C31.3,138.4 31.7,139.1 31.9,139.6 C33.3,139.9 34.7,140.3 35.9,140.6 C36.2,140.8 36.8,140.8 36.9,140.6 C37.9,139.7 39,140.3 40,139.9 C42.1,139 44.1,139.4 46,139.2 C46.3,139.2 46.5,139 46.7,138.9 C48.3,137.9 49.6,138 51,138.9 C51.2,139.1 51.9,138.9 52,138.7 C52.7,137.7 53.2,136.5 54.6,135.8 C54.9,135.6 55.1,134.9 55.3,134.4 C55.6,133.4 56.3,132.3 56.5,131.3 C57.7,130.1 57.9,129.4 57.9,128.7 L57.9,128.7 Z" id="Shape" fill="#89AFDC"></path>
            </g>
            <path d="M279,168.3 C278.9,168.3 278.8,168.2 278.7,168.2 C278.6,168.2 278.6,168.2 278.5,168.1 C278.4,168.1 278.3,168 278.2,168 C278.1,168 278.1,168 277.9,167.9 C277.5,167.8 277.3,167.7 277.3,167.5 C277.3,167.4 277.4,167.3 277.5,167.2 C277.6,167.1 277.7,167.1 277.9,167.1 C278.1,167.1 278.3,167.1 278.4,167.2 C278.5,167.2 278.5,167.3 278.5,167.4 C278.6,167.5 278.7,167.6 278.8,167.6 L279.2,167.6 C279.2,167.3 279.1,167 278.8,166.8 C278.6,166.6 278.2,166.5 277.8,166.5 C277.3,166.5 277,166.6 276.8,166.8 C276.6,167 276.4,167.3 276.4,167.6 C276.4,167.8 276.4,168 276.5,168.1 C276.6,168.2 276.7,168.4 276.8,168.4 C276.9,168.5 277.2,168.6 277.5,168.6 L277.6,168.6 C278.2,168.7 278.5,168.9 278.5,169.1 C278.5,169.2 278.4,169.4 278.3,169.4 C278.2,169.5 278,169.5 277.8,169.5 C277.6,169.5 277.4,169.5 277.2,169.4 C277.1,169.3 277,169.2 277,169 L276.3,169 C276.3,169.4 276.5,169.7 276.7,169.9 C276.9,170.1 277.3,170.2 277.8,170.2 C278.3,170.2 278.6,170.1 278.9,169.9 C279.1,169.7 279.3,169.4 279.3,169 C279.3,168.8 279.3,168.7 279.2,168.5 C279.2,168.5 279.1,168.4 279,168.3 L279,168.3 Z M281.2,166.5 C281,166.5 280.9,166.6 280.8,166.8 L279.6,170.3 L280.4,170.3 L280.6,169.5 L282.1,169.5 L282.4,170.3 L283.2,170.3 L281.8,166.5 L281.2,166.5 L281.2,166.5 Z M280.8,168.9 L281.3,167.3 L281.8,168.9 L280.8,168.9 L280.8,168.9 Z M291,166.5 L290,166.5 C289.9,166.5 289.8,166.5 289.7,166.6 C289.6,166.7 289.6,166.8 289.6,166.9 L289.6,170.3 L290.9,170.3 C291.3,170.3 291.5,170.3 291.7,170.2 C291.9,170.1 292.1,170.1 292.2,169.9 C292.4,169.8 292.5,169.5 292.7,169.3 C292.8,169 292.9,168.7 292.9,168.4 C292.9,167.8 292.8,167.3 292.5,167 C292,166.7 291.6,166.5 291,166.5 L291,166.5 Z M291.7,169.3 C291.5,169.5 291.3,169.6 290.9,169.6 L290.3,169.6 L290.3,167.2 L291,167.2 C291.3,167.2 291.6,167.3 291.7,167.5 C291.9,167.7 291.9,168 291.9,168.4 C292,168.8 291.9,169.1 291.7,169.3 L291.7,169.3 Z M296.1,167 C295.8,166.7 295.3,166.5 294.8,166.5 C294.3,166.5 293.8,166.7 293.5,167 C293.2,167.3 293,167.8 293,168.4 C293,169 293.2,169.4 293.5,169.8 C293.8,170.1 294.2,170.3 294.8,170.3 C295.3,170.3 295.8,170.1 296.1,169.8 C296.4,169.5 296.6,169 296.6,168.4 C296.5,167.8 296.4,167.4 296.1,167 L296.1,167 Z M295.5,169.3 C295.3,169.5 295.1,169.6 294.8,169.6 C294.5,169.6 294.2,169.5 294.1,169.3 C293.9,169.1 293.8,168.8 293.8,168.4 C293.8,168 293.9,167.7 294.1,167.5 C294.3,167.3 294.5,167.2 294.8,167.2 C295.1,167.2 295.4,167.3 295.5,167.5 C295.7,167.7 295.8,168 295.8,168.4 C295.8,168.8 295.7,169.1 295.5,169.3 L295.5,169.3 Z M286.5,166.6 C286.4,166.7 286.4,166.8 286.4,166.9 L286.4,170.3 L289.1,170.3 L289.1,169.6 L287.1,169.6 L287.1,168.6 L288.2,168.6 C288.3,168.6 288.4,168.6 288.5,168.5 C288.6,168.4 288.6,168.3 288.6,168.2 L288.6,168 L287.1,168 L287.1,167.2 L289.1,167.2 L289.1,166.6 L286.8,166.6 C286.7,166.5 286.6,166.5 286.5,166.6 L286.5,166.6 Z M285,166.8 L284.3,169.3 L283.5,166.5 L282.6,166.5 L283.9,170.3 L284.6,170.3 L285.9,166.5 L285.3,166.5 C285.2,166.5 285.1,166.6 285,166.8 L285,166.8 Z" id="Shape" fill="#0054A5" sketch:type="MSShapeGroup"></path>
            <path d="M281.4,173.8 L280.1,171.9 L279.9,171.9 L279.9,174 L280.1,174 L280.1,172.1 L281.4,174 L281.6,174 L281.6,171.9 L281.4,171.9 L281.4,173.8 L281.4,173.8 Z M283.6,173.1 L283.5,173 C283.4,173 283.4,172.9 283.3,172.9 C283.2,172.9 283.2,172.9 283.1,172.8 L282.9,172.8 C282.8,172.8 282.7,172.8 282.6,172.7 C282.5,172.7 282.5,172.6 282.4,172.6 L282.3,172.5 L282.3,172.4 C282.3,172.3 282.3,172.2 282.4,172.1 C282.5,172 282.6,172 282.8,172 L283,172 C283.1,172 283.1,172 283.2,172.1 L283.3,172.2 C283.3,172.2 283.4,172.3 283.4,172.4 L283.5,172.4 C283.5,172.3 283.5,172.2 283.4,172.2 C283.4,172.1 283.3,172.1 283.2,172 C283.1,172 283.1,171.9 283,171.9 L282.7,171.9 L282.4,171.9 C282.3,171.9 282.2,172 282.2,172 C282.1,172 282.1,172.1 282.1,172.2 C282.1,172.3 282,172.3 282,172.4 L282,172.6 C282,172.7 282.1,172.7 282.1,172.8 C282.2,172.8 282.2,172.9 282.3,172.9 C282.4,172.9 282.5,173 282.6,173 C282.7,173 282.9,173.1 282.9,173.1 C283,173.1 283.1,173.2 283.1,173.2 C283.2,173.2 283.2,173.3 283.2,173.3 L283.2,173.5 L283.2,173.7 C283.2,173.8 283.1,173.8 283.1,173.8 C283,173.8 283,173.9 282.9,173.9 L282.7,173.9 L282.5,173.9 C282.4,173.9 282.4,173.9 282.3,173.8 C282.2,173.8 282.2,173.7 282.1,173.6 C282.1,173.5 282,173.5 282,173.4 L281.9,173.4 C281.9,173.5 281.9,173.6 282,173.7 C282,173.8 282.1,173.8 282.2,173.9 C282.3,174 282.4,174 282.5,174 L282.9,174 L283.2,174 C283.3,174 283.4,173.9 283.4,173.9 C283.5,173.8 283.5,173.8 283.6,173.7 C283.6,173.6 283.7,173.5 283.7,173.5 L283.7,173.3 C283.7,173.1 283.6,173.1 283.6,173.1 L283.6,173.1 Z M279,174 L279.2,174 L279.2,171.9 L279,171.9 L279,174 L279,174 Z M278.1,172.1 L278.1,171.9 L276.7,171.9 L276.7,172.1 L278,172.1 L276.6,173.9 L276.6,174.1 L278.2,174.1 L278.2,173.9 L276.8,173.9 L278.1,172.1 L278.1,172.1 Z M290.4,173.3 L290.4,173.2 C290.4,173.2 290.4,173.1 290.3,173.1 L290.2,173 C290.3,173 290.3,173 290.4,172.9 C290.5,172.9 290.5,172.8 290.5,172.8 C290.5,172.8 290.6,172.7 290.6,172.6 L290.6,172.4 C290.6,172.3 290.6,172.2 290.5,172.1 C290.5,172 290.4,172 290.3,171.9 C290.2,171.9 290.2,171.8 290.1,171.8 L289.8,171.8 L289,171.8 L289,173.9 L289.2,173.9 L289.2,172.9 L289.9,172.9 L290,172.9 C290,172.9 290.1,172.9 290.1,173 L290.2,173.1 C290.2,173.1 290.2,173.2 290.3,173.3 L290.5,173.9 L290.7,173.9 L290.5,173.3 C290.5,173.4 290.4,173.3 290.4,173.3 L290.4,173.3 Z M290.2,172.9 L289.9,172.9 L289.2,172.9 L289.2,172 L290,172 C290.2,172 290.3,172 290.4,172.1 C290.5,172.2 290.5,172.3 290.5,172.4 L290.5,172.6 C290.5,172.7 290.4,172.7 290.4,172.7 C290.3,172.8 290.2,172.8 290.2,172.9 L290.2,172.9 Z M293.6,171.9 C293.5,172.1 293.5,172.3 293.4,172.4 C293.3,172.6 293.3,172.7 293.2,172.9 C293.1,173.1 293.1,173.2 293,173.4 C292.9,173.6 292.9,173.8 292.8,173.9 L293,173.9 C293,173.8 293.1,173.7 293.1,173.6 C293.1,173.5 293.2,173.4 293.2,173.3 L294.2,173.3 L294.5,174 L294.7,174 L293.9,171.9 L293.6,171.9 L293.6,171.9 Z M293.3,173.2 L293.8,172 L294.3,173.2 L293.3,173.2 L293.3,173.2 Z M295.5,173.8 L295.5,171.8 L295.3,171.8 L295.3,173.9 L296.5,173.9 L296.5,173.7 L295.5,173.7 L295.5,173.8 Z M285.7,172 C285.6,172 285.5,171.9 285.5,171.9 L285.2,171.9 L284.4,171.9 L284.4,174 L284.6,174 L284.6,173.1 L285.2,173.1 C285.4,173.1 285.6,173 285.8,172.9 C285.9,172.8 286,172.6 286,172.4 C286,172.3 286,172.2 285.9,172.1 C285.8,172.1 285.7,172 285.7,172 L285.7,172 Z M285.7,172.7 C285.7,172.8 285.6,172.8 285.6,172.8 C285.6,172.8 285.5,172.9 285.4,172.9 L285.1,172.9 L284.5,172.9 L284.5,172 L285.1,172 L285.3,172 C285.4,172 285.4,172 285.5,172.1 C285.6,172.1 285.6,172.2 285.6,172.2 L285.6,172.4 C285.7,172.5 285.7,172.6 285.7,172.7 L285.7,172.7 Z M288.2,172.1 C288.1,172 288,171.9 287.9,171.9 C287.8,171.8 287.7,171.8 287.5,171.8 C287.4,171.8 287.2,171.8 287.1,171.9 C287,172 286.9,172 286.8,172.1 C286.7,172.2 286.6,172.3 286.6,172.4 C286.6,172.5 286.5,172.7 286.5,172.9 C286.5,173.1 286.5,173.2 286.6,173.4 C286.6,173.5 286.7,173.7 286.8,173.7 C286.9,173.8 287,173.9 287.1,173.9 C287.2,174 287.4,174 287.5,174 C287.6,174 287.8,174 287.9,173.9 C288,173.8 288.1,173.8 288.2,173.7 C288.3,173.6 288.4,173.5 288.4,173.4 C288.4,173.3 288.5,173.1 288.5,173 C288.5,172.8 288.5,172.7 288.4,172.6 C288.4,172.3 288.3,172.2 288.2,172.1 L288.2,172.1 Z M288.3,173.3 C288.3,173.4 288.2,173.5 288.1,173.6 C288,173.7 287.9,173.7 287.8,173.8 C287.7,173.8 287.6,173.9 287.5,173.9 C287.4,173.9 287.3,173.9 287.2,173.8 C287.1,173.8 287,173.7 286.9,173.6 C286.8,173.5 286.8,173.4 286.7,173.3 C286.7,173.2 286.6,173 286.6,172.9 C286.6,172.7 286.6,172.6 286.7,172.5 C286.7,172.4 286.8,172.3 286.9,172.2 C287,172.1 287.1,172.1 287.2,172 C287.3,172 287.4,171.9 287.5,171.9 C287.6,171.9 287.7,171.9 287.8,172 C287.9,172 288,172.1 288.1,172.2 C288.2,172.3 288.2,172.4 288.3,172.5 C288.3,172.6 288.4,172.7 288.4,172.9 C288.3,173.1 288.3,173.2 288.3,173.3 L288.3,173.3 Z M291.2,172 L291.9,172 L291.9,174 L292.1,174 L292.1,172 L292.8,172 L292.8,171.8 L291.2,171.8 L291.2,172 L291.2,172 Z" id="Shape" fill="#F16531" sketch:type="MSShapeGroup"></path>
            <path d="M279.4,165.2 L286.4,165.2 L296.6,165.2 L296.6,155.9 L296.6,153.5 C292.8,159.7 286.7,163.7 279.4,165.2 L279.4,165.2 L279.4,165.2 Z" id="Shape" fill="#F16531" sketch:type="MSShapeGroup"></path>
            <path d="M276.5,165.2 C286.2,162.9 294.2,155.3 296.6,145.1 L276.5,145.1 L276.5,165.2 L276.5,165.2 Z" id="Shape" fill="#0054A5" sketch:type="MSShapeGroup"></path>
        </g>
    </g>
</svg>